<svg height="865" viewBox="0 0 1440 865" width="1440" xmlns="http://www.w3.org/2000/svg"><g fill="none" fill-rule="evenodd"><g transform="translate(0 -2)"><path d="m972.544218 473.688747 469.455782-473.688747v124.12604 511.87396l-1442-87.529746v-9.506911l686.64666-144.862273z" fill="#2ab7ca"/><path d="m1439.13734 4.26130653 2.86266 232.24120647-15.1666-53.357394-39.97252 53.357394-21.92098-72.675612-80.9399 28.805241 41.23866-72.250232z" fill="#fff"/></g><g transform="translate(956 359)"><path d="m3.59993177 47.9032258h4.40006823v18.0967742h-4.40006823c-1.98805936 0-3.59993177-1.8233629-3.59993177-4.071697v-9.9531229c-.00022744-2.2485914 1.61187241-4.0719543 3.59993177-4.0719543z" fill="#cf4737"/><path d="m44.6666667 26.6129032h-8.3333334c-4.6021209 0-8.3333333 4.0730397-8.3333333 9.0967742v40.9354839h25v-40.9354839c0-5.0237345-3.7312124-9.0967742-8.3333333-9.0967742z" fill="#3e8cc7"/><path d="m50.9350024 4.25806452-16.6682715 2.23538218c-.1779009.73089091-.2667309 1.48211965-.2667309 2.23538218v8.94203722c0 4.9382803 3.7912855 8.9420371 8.4675012 8.9420371s8.4675012-4.0037568 8.4675012-8.9420371v-8.941783c.0866635-1.48898367.0866635-2.98228913 0-4.47101858z" fill="#fec9a3"/><g fill="#75462e" transform="translate(9)"><path d="m25.6033939 6.79878438v9.06521762l8.5270303-9.06521762h6.3951516c3.5323636 0 6.3951515-3.04373175 6.3951515-6.79878438h-14.9221818c-3.5321213 0-6.3951516 3.04373175-6.3951516 6.79878438"/><path d="m44.7890909 77.0540924h-25.5810909v22.6630441l-19.18569697 9.0652175 4.26351515 9.065218 20.33260602-9.006199c3.1784243-1.407436 5.2484849-4.709408 5.2484849-8.36936v-10.0623556c0-2.3682346 1.8055757-4.2900897 4.0353939-4.2900897 1.4581818 0 2.8031515.8363175 3.5173334 2.187054l18.0281212 34.0738163 8.5270303-4.532608z"/></g><g fill="#3e8cc7" transform="translate(0 108.580645)"><path d="m7.58160694 20.6027169-7.35873989-15.95200142 8.5393526-4.6278224 7.58500575 16.44249222c.599896 1.3028003.599896 2.8345313 0 4.1373316-.7237109 1.5688337-2.2031792 2.5592882-3.8193294 2.5592882h-1.1272024c-1.61809244 0-3.09731788-.9904545-3.81908666-2.5592882z"/><path d="m81.346474 16.2201399-12.8090289 6.941602-4.2696763-9.2556448 12.8090289-6.94160199c2.3590405-1.27727583 5.2259653-.24287713 6.4043931 2.31377963 1.1786705 2.55691986.2221387 5.66458936-2.1347168 6.94186516z"/></g><path d="m81.956147 41.1786423c-1.7317253-2.4328289-5.0090592-2.926938-7.3171457-1.1018733-.1986045.1559279-.3842408.3272966-.5595507.5118281l-10.5207534 11.0893562-10.5586972-13.3553727v17.8071636l.9228984 1.4580267c3.4084561 5.3843205 10.3118225 6.840069 15.4222252 3.2476532.6102224-.429561 1.1784185-.9193668 1.6957027-1.4668862l10.4299765-10.9936732c1.8369112-1.9387199 2.0439209-5.0036135.4853442-7.1962224z" fill="#fec9a3"/><g fill="#75462e" transform="translate(9 24.483871)"><path d="m26.1250331.1867871h-15.6206622v4.51239652h15.6206622c3.0313907.00230918 5.4865431 2.64888735 5.4843974 5.91124718 0 .8910873-.1885828 1.7711419-.549298 2.5721712l-13.1762385 29.1952337-5.2831788.6768467v4.5123965l5.974808-.9272645c1.377298-.2142407 2.5638675-1.1484328 3.172053-2.4954551l13.0756291-28.987664c2.3354702-5.17564468.329245-11.40966403-4.4802119-13.92307942-1.3143576-.68813598-2.7567417-1.0445196-4.2179603-1.04682878z"/><path d="m.02193377 43.0544258c0 3.7385643 2.81562914 6.7684665 6.28927153 6.7684665h6.2892715c3.4738808 0 6.2892715-3.0301588 6.2892715-6.7684665v-2.25607h-18.86781453z"/></g><path d="m27.6410836 32.1859753c-.8950101-2.7027738-3.2890663-4.510861-5.974577-4.5085537h-6.3332533c-3.4981741 0-6.3332533 3.0275783-6.3332533 6.7627024v31.559876h19v-31.559876z" fill="#de4c3c"/><path d="m83.6321997 32.8330354 3.8972627-.03635-.9445044 99.5530326-3.8972626.03635z" fill="#75462e" transform="matrix(-.97401059 .22650246 -.22650246 -.97401059 186.712387 143.758951)"/><path d="m18.5 6.38709677c-5.2461146 0-9.5 4.52832963-9.5 10.11290323s4.2538854 10.1129032 9.5 10.1129032 9.5-4.5283296 9.5-10.1129032-4.2538854-10.11290323-9.5-10.11290323zm0 13.48378583c-1.7479846 0-3.1665866-1.5101248-3.1665866-3.3708826s1.418602-3.3708826 3.1665866-3.3708826 3.1665866 1.5101248 3.1665866 3.3708826-1.418602 3.3708826-3.1665866 3.3708826z" fill="#3e8cc7" fill-rule="nonzero"/><path d="m42.44825 37.9260969-12.5084231 7.9262328 14.6651831 10.9635089c2.4758349 1.7214205 3.1399816 5.2004591 1.4837841 7.7737954-.0517485.0808071-.1057043.1590651-.1618673.237578-1.7167751 2.3737402-4.9148818 2.9432136-7.2938415 1.300051l-18.0531161-13.3036008c-2.2386747-1.5557277-3.5821738-4.1716344-3.5799665-6.9713325 0-2.7996982 1.3457064-5.4156048 3.5885504-6.9690384l15.8966013-10.2686188c2.3787145-1.6431626 5.5770664-1.0736892 7.2938415 1.300051 1.7793147 2.4813131 1.2875813 5.9917059-1.0999623 7.8431315-.0755381.0583748-.1530382.1144555-.2307836.1682419z" fill="#fec9a3"/></g><path d="m1440 83.5171828v235.4828172l-483.183013-208.109014-283.090807 66.189687-673.72618-177.080673z" fill="#ee9480" transform="translate(0 546)"/></g></svg>