<svg height="40" viewBox="0 0 48 40" width="48" xmlns="http://www.w3.org/2000/svg" xmlns:xlink="http://www.w3.org/1999/xlink"><defs><path id="a" d="m29 12.6197183h-9.794702v13.5966132 13.7836685h-9.36258277v-27.3802817h-9.84271523v-8.6197183h29z"/><path id="b" d="m35 13v-9h1v9zm0-11v-2h1v2zm13 11h-1.7483444v-4.94915254c0-.94915729-.1688725-1.63841593-.5066225-2.06779661s-.8509899-.6440678-1.5397351-.6440678c-.3576177 0-.71523.05932144-1.0728477.1779661s-.6953626.27966-1.013245.48305085-.5960253.44632627-.8344371.72881356-.4172179.59321864-.5364238.93220339v5.33898305h-1.7483444v-8.84745763h1.589404v1.89830509c.4105981-.62147204 1.0033074-1.11864221 1.7781457-1.49152543s1.6192007-.55932203 2.5331126-.55932203c.5960294 0 1.0927132.09321941 1.4900662.27966102s.7152306.44632601.9536424.77966101c.2384117.333335.4072842.72598644.5066225 1.17796611.0993382.45197966.1490066.94350017.1490066 1.47457627z"/></defs><g fill="none" fill-rule="evenodd"><g><use fill="#fff" xlink:href="#a"/><use fill="#011627" xlink:href="#a"/></g><g><use fill="#fff" xlink:href="#b"/><use fill="#000" xlink:href="#b"/></g></g></svg>